<svg width="79" height="28" viewBox="0 0 79 28" fill="none" xmlns="http://www.w3.org/2000/svg">
<path d="M0.837158 0V22.2671H10.088V18.6971H4.38113V0H0.837158ZM10.6873 6.01954H13.9186V22.2671H10.6873V6.01954ZM19.8078 16.4821H19.86L21.9968 6.01954H25.228L21.4235 22.2671H18.2443L14.4398 6.01954H17.671L19.8078 16.4821ZM25.7492 6.01954H28.9805V22.2671H25.7492V6.01954ZM29.8534 22.2671V6.01954H32.9805V7.86971C34.1661 6.67101 35.2606 5.71987 36.6026 5.71987C38.5831 5.71987 39.6124 6.87948 39.6124 9.90228V22.2671H36.3681V10.3192C36.3681 9.23778 36.0554 8.5342 35.1824 8.5342C34.5179 8.5342 33.7753 9.26384 33.0847 10.0065V22.2801C33.0847 22.2671 29.8534 22.2671 29.8534 22.2671ZM47.2606 23.3485C48.2378 23.4397 48.4463 23.6743 48.4463 24.2215C48.4463 25.0554 47.5473 25.5114 45.9968 25.5114C44.0945 25.5114 43.0391 25.1596 43.0391 24.3127C43.0391 23.7134 43.3779 23.3876 43.7036 22.9967L47.2606 23.3485ZM51.6775 5.70684C50.4658 5.70684 49.671 6.39739 48.8502 7.58306C47.9902 6.42345 46.6482 5.7329 45.202 5.70684C41.5798 5.70684 40.4202 8.33876 40.4202 11.8306C40.4202 14.5537 40.9544 16.2866 42.5179 17.4723C41.7231 18.0456 40.5635 18.9055 40.5635 20.1954C40.5635 21.2508 41.1238 21.9544 41.8925 22.5016C41.1238 23.0619 39.9381 23.8046 39.9381 25.0423C39.9381 26.8664 41.8404 28 45.2802 28C49.0326 28 51.4951 26.684 51.4951 23.9088C51.4951 18.0326 43.3779 21.1596 43.3779 19.127C43.3779 18.7362 43.7557 18.4756 43.9381 18.1759C44.3681 18.3322 44.8241 18.3974 45.2671 18.3844C48.4463 18.3844 49.9446 16.0521 49.9446 11.987C49.9446 11.0098 49.7362 10.1889 49.5407 9.12052C49.9837 8.9772 50.3095 8.76873 50.6482 8.76873C50.987 8.82085 51.3258 8.89902 51.6515 9.01629L51.6775 5.70684ZM46.8958 11.8958C46.8958 14.7362 46.4267 15.3225 45.0456 15.3225C44.0684 15.3225 43.5082 14.3062 43.5082 12.2736C43.5082 9.7329 43.9772 8.7557 45.202 8.7557C46.3355 8.7557 46.8958 9.79805 46.8958 11.8958ZM61.8925 15.0489V11.2573C61.8925 7.93485 59.7557 5.7329 56.7459 5.7329C53.658 5.7329 51.5994 7.93485 51.5994 11.5049V16.8208C51.5994 20.3778 53.658 22.5928 56.7459 22.5928C60.0033 22.5928 61.7231 20.6384 61.8925 17.2769H58.6613C58.6613 18.5277 58.1271 19.544 56.759 19.544C55.6775 19.544 54.8567 18.8274 54.8567 17.2117V15.0619H61.8925V15.0489ZM54.8697 12V11.101C54.8697 9.66775 55.456 8.76873 56.772 8.76873C58.088 8.76873 58.6743 9.66775 58.6743 11.101V12H54.8697ZM61.8925 9.0684V6.01954H63.1824V2.1759H66.4137V6.01954H68.4984V9.0684H66.4267V18.0847C66.4267 18.8925 67.013 19.2834 67.899 19.2834C68.1075 19.2834 68.329 19.2834 68.5375 19.2573V22.4235C67.9251 22.5277 67.3127 22.5798 66.6873 22.5668C64.5896 22.5668 63.1955 21.6678 63.1955 19.3355V9.05538H61.8925V9.0684ZM75.7687 11.6352V10.9186C75.7687 9.66775 75 9.00326 73.8665 9.00326C72.7329 9.00326 71.9642 9.65472 71.9642 10.9186V17.3681C71.9642 18.6189 72.7329 19.2834 73.8665 19.2834C75 19.2834 75.7687 18.6319 75.7687 17.3681V16.3518H79V16.4169C79 20.7166 77.0977 22.5668 73.8534 22.5668C70.6091 22.5668 68.7069 20.7166 68.7069 16.4169V11.8827C68.7069 7.58306 70.6091 5.7329 73.8534 5.7329C77.0196 5.7329 78.9088 7.53095 78.9609 11.6482L75.7687 11.6352ZM25.7362 2.1759H28.9805V5.23778H25.7362V2.1759ZM10.7003 2.1759H13.9446V5.23778H10.7003V2.1759Z" fill="#002198"/>
</svg>
