<svg width="192" height="38" viewBox="0 0 192 38" fill="none" xmlns="http://www.w3.org/2000/svg">
<path d="M2.16862 19.5517C2.16862 19.5517 1.26108 21.4796 2.72625 21.4796C4.19143 21.4796 9.17423 2.80005 10.8885 2.80005C12.6029 2.80005 15.0112 15.3697 14.9874 19.6466" stroke="#002198" stroke-width="2.5" stroke-linecap="round" stroke-linejoin="round"/>
<path d="M2.96942 15.9392C4.28354 16.2933 5.65593 16.376 7.00306 16.1824C9.00211 15.8325 15.3077 14.2902 15.3077 14.2902" stroke="#002198" stroke-width="2.5" stroke-linecap="round" stroke-linejoin="round"/>
<path d="M35.5592 4.17029C35.5592 4.17029 34.2838 16.9654 35.5592 19.6466C35.5592 19.6466 37.3921 12.3444 39.9903 12.3444C42.5885 12.3444 41.7699 19.6822 43.6918 19.6822C47.7018 19.6822 48.0102 11.8817 48.0102 11.8817C48.811 12.6885 48.5322 19.5576 49.7067 19.6466C50.8813 19.7356 53.7227 14.7943 54.4167 14.8477C55.1107 14.9011 54.7132 19.7949 56.736 19.7949C57.8757 19.7262 58.9446 19.219 59.7186 18.3797C60.4927 17.5404 60.9119 16.4341 60.8883 15.2926C60.8883 12.6232 58.6876 9.48528 56.6648 9.48528" stroke="#002198" stroke-width="2.5" stroke-linecap="round" stroke-linejoin="round"/>
<path d="M19.4304 10.9149C21.0795 11.8699 18.2025 19.6703 20.0948 19.6703C23.298 19.6703 28.6249 13.0148 29.0638 11.7394C29.1758 11.286 29.1167 10.8072 28.8978 10.3946C28.679 9.98201 28.3157 9.66461 27.8774 9.50309C27.5673 9.36949 27.2262 9.32444 26.892 9.37297C26.5578 9.4215 26.2436 9.56171 25.9843 9.77802C25.7249 9.99432 25.5306 10.2783 25.4229 10.5983C25.3152 10.9184 25.2983 11.262 25.3741 11.5911C25.5461 13.0741 27.9011 14.7825 29.5264 15.1799C31.1518 15.5773 31.7509 16.0638 31.8992 17.4162C32.1009 19.1424 30.1197 19.6941 28.5299 19.6941C25.297 19.6941 24.0394 18.2348 24.9233 17.3213" stroke="#002198" stroke-width="2.5" stroke-linecap="round" stroke-linejoin="round"/>
<path d="M18.1906 3.07886C18.6269 3.44509 18.9414 3.93543 19.0923 4.48471" stroke="#002198" stroke-width="2.5" stroke-linecap="round" stroke-linejoin="round"/>
<path d="M98.6033 15.5714C96.8238 24.4692 84.96 21.5922 82.4449 29.5469C81.3356 33.106 84.1888 36.7423 88.7267 36.0127C93.2646 35.283 95.1806 30.8223 95.2162 24.4336C95.2162 21.094 95.2637 9.43186 95.2637 9.43186C94.9018 16.2417 93.3595 19.5991 90.2453 18.8517C87.131 18.1043 88.3471 10.4521 88.3471 10.4521C88.3471 10.4521 85.1024 21.5922 81.6381 19.0593C79.8586 17.7602 81.1991 12.4097 81.1991 12.4097C81.1991 12.4097 77.5213 14.2248 75.1249 12.6114C72.4792 10.8318 76.7977 6.9286 76.9934 9.97166C77.1892 13.0147 75.8842 19.8245 73.3097 19.6347C70.7353 19.4449 70.67 13.5901 70.67 13.5901C70.8836 17.0069 68.0541 19.8008 65.9898 19.6466C63.9255 19.4923 63.6645 16.6806 64.3289 14.3079C64.9932 11.9351 66.7846 10.4699 68.3151 10.5826C69.4243 10.6657 69.9226 11.9173 69.6557 13.2817" stroke="#002198" stroke-width="2.5" stroke-linecap="round" stroke-linejoin="round"/>
<path d="M104.452 12.73C104.452 12.73 105.514 11.1521 104.078 10.0725C102.429 8.8268 100.163 10.9326 99.0245 13.8926C97.8856 16.8527 99.1431 18.478 100.353 18.9644C102.299 19.7474 103.96 17.7246 104.915 16.3069C105.503 15.3121 105.772 14.1611 105.686 13.0088C105.686 13.0088 105.745 19.261 110.046 19.2551" stroke="#002198" stroke-width="2.5" stroke-linecap="round" stroke-linejoin="round"/>
<path d="M180.351 9.96579C184.147 11.2945 184.384 16.2239 184.313 18.8636C184.313 18.8636 190.838 15.3045 189.415 9.5802" stroke="#002198" stroke-width="2.5" stroke-linecap="round" stroke-linejoin="round"/>
<path d="M175.38 12.5698C175.742 11.2114 175.267 9.95974 174.069 9.86483C172.408 9.72839 171.18 11.1758 170.332 13.5307C169.483 15.8857 170.237 18.6974 172.467 18.8694C174.698 19.0415 177.931 16.3009 177.877 12.8901C177.877 12.8901 177.669 18.8694 180.428 18.8694" stroke="#002198" stroke-width="2.5" stroke-linecap="round" stroke-linejoin="round"/>
<path d="M138.501 13.1986C138.501 13.1986 140.447 11.158 138.816 10.0843C137.184 9.01067 134.598 10.8852 133.477 13.8214C132.356 16.7577 133.726 18.472 135.096 18.8754C137.042 19.4686 138.46 17.1314 139.439 15.7315C140.417 14.3316 140.981 13.5723 140.981 13.5723C140.981 13.5723 139.848 18.7331 143.004 18.7331C145.163 18.7331 145.436 14.9485 145.436 14.9485" stroke="#002198" stroke-width="2.5" stroke-linecap="round" stroke-linejoin="round"/>
<path d="M128.72 1.89246C129.722 3.13222 132.047 14.9426 128.72 18.8755C125.392 22.8083 117.769 20.655 118.161 14.0528" stroke="#002198" stroke-width="2.5" stroke-linecap="round" stroke-linejoin="round"/>
<path d="M159.429 2.63391L158.753 18.4483C158.753 18.4483 160.331 9.87675 163.421 9.87675C167.449 9.87675 164.068 17.9619 167.312 18.8992C169.614 19.5695 170.047 14.7113 170.047 14.7113" stroke="#002198" stroke-width="2.5" stroke-linecap="round" stroke-linejoin="round"/>
<path d="M150.911 12.0301C150.973 11.6302 150.902 11.2212 150.709 10.8655C150.516 10.5098 150.212 10.2271 149.843 10.0607C147.696 9.12938 146.207 10.9683 145.649 13.3885C145.092 15.8087 145.596 18.3653 148.022 18.6263C150.448 18.8873 152.613 17.0544 152.934 12.73C153.254 8.40569 153.58 2.15942 153.58 2.15942C153.58 2.15942 151.314 18.0035 155.793 18.4543C157.697 18.6501 158.812 16.3426 158.931 14.1003" stroke="#002198" stroke-width="2.5" stroke-linecap="round" stroke-linejoin="round"/>
</svg>
