<svg width="27" height="36" viewBox="0 0 27 36" fill="none" xmlns="http://www.w3.org/2000/svg">
<g clip-path="url(#clip0_115_263)">
<path d="M18.441 16.4048C21.3413 14.3468 24.7497 12.0312 25.9655 9.89197C29.3344 11.2447 19.5524 17.1844 17.5129 18.6925C14.4758 24.1961 11.673 38.7554 4.70305 35.5396C0.466349 33.5837 2.15082 28.3748 6.47105 24.9455C10.3852 21.8341 14.2832 20.2842 15.7797 17.015C19.7543 8.33048 13.5199 18.9478 10.5337 19.6972C7.01398 20.0522 9.34812 14.7482 10.202 12.9871C7.43394 13.5463 4.60097 21.8039 1.1021 19.1775C-3.65898 15.6067 8.30866 1.57867 11.9792 9.08455C11.9792 9.08455 13.3273 6.65993 14.7032 7.11701C16.8888 7.84556 13.1463 12.2632 12.5848 14.5417C11.4247 18.3816 13.1277 16.015 15.5686 12.892C17.7844 10.0544 20.2902 5.59727 22.4016 6.59032C23.7125 7.20982 22.107 8.91053 20.8494 11.4929C19.8564 13.537 19.4828 14.3909 18.441 16.4048ZM6.31096 32.8481C9.90032 34.3122 13.9677 21.2308 13.9677 21.2308C13.9677 21.2308 1.53596 30.8992 6.31096 32.8481ZM10.905 11.6043C11.5662 10.5602 11.0558 8.33048 8.93976 8.33048C4.38519 8.33048 0.946632 15.4814 3.96291 16.4512C6.00005 17.1171 8.28779 11.189 10.905 11.6043Z" fill="#002198"/>
<path d="M26.0072 1.6066C26.0072 4.4535 22.3297 5.42103 22.3297 2.73886C22.3297 0.0567002 26.0072 -1.23798 26.0072 1.6066Z" fill="#002198"/>
</g>
<defs>
<clipPath id="clip0_115_263">
<rect width="26.6662" height="36" fill="white"/>
</clipPath>
</defs>
</svg>
